<svg viewBox="0 0 1024 1024" xmlns="http://www.w3.org/2000/svg"><path d="M454.4 525.5h117v63.1h-117zm117 109.8h-117v68.5h82.5c24.8 1.9 36.2-10.1 34.5-35.5v-33z"/><path d="M968.2 174.8C948 119.1 904 75.1 848 54.6c-50.8-16.1-98.2-16.1-193.2-16.1H368.3c-95 0-142.4.0-193.6 16.1-55.9 20.5-99.9 64.5-120.2 120.2-16.4 51.2-16.4 98.6-16.4 193.6V655c0 95 0 142.6 16.1 193.6 20.3 55.8 64.3 99.7 120 120 51.2 16.1 98.6 16.1 193.6 16.1h286.5c95 0 142.4.0 193.6-16.1 55.8-20.3 99.7-64.3 120.2-120 16.1-51.2 16.1-98.6 16.1-193.6V368.5c.2-95.1.2-142.5-16-193.7zM206.9 306.1c44.4-23.9 72.8-60.5 85.1-109.8h79.8c-1.7 3.8-3.6 9.1-5.3 16.5-3.6 9.1-6.3 15.6-8 19.2h154.4v46.6h-85.1c8.7 20.1 15.9 43 21 68.8h-74.5c-1.7-22-7-44.9-15.9-68.6h-26.5c-24.8 34.7-66.4 59.4-125 74v-46.7zm99.4 521.1h-70.7V456.8h70.7v370.4zm3.7-384c-5.3-33-16.7-65.8-34.5-98.8h71.9c15.9 23.9 29.2 56.7 39.8 98.8H310zm253.4 310H382.5v-277h260.7v194.7c3.6 56.7-23.1 84.2-79.8 82.3zm133.1 68.3h-63.9v-54.8h44c26.5 1.9 38.9-10.8 37.2-38.3V426.7H393.1v-54.8H787v364.5c1.7 58.5-28.5 87-90.5 85.1zM816 278.8h-93.1c12.3 27.5 19.5 50.4 21.2 68.6h-71.9c-1.7-22-7-44.9-15.9-68.6h-37.2c-28.3 36.6-70 62.2-125 76.8v-43.8c42.7-25.6 70-64.1 82.5-115.3h79.8l-8 24.7c-1.7 3.6-2.7 6.3-2.7 8.2v.2H816v49.2z"/></svg>